<svg id="Layer_1" data-name="Layer 1" xmlns="http://www.w3.org/2000/svg" viewBox="0 0 2000 637.5"><defs><style>.cls-1{fill:#f99c22;}.cls-2{fill:#fff;}</style></defs><title>01_Primary_Colour_KO</title><path class="cls-1" d="M619.69,242.6c-26.63-43.23-69.82-69.1-123.61-74.73,0-34.32-12.36-70.67-35.24-100.82C428,23.81,378.93,0,322.64,0S217.27,23.81,184.45,67.06c-22.89,30.14-35.26,66.5-35.25,100.81-53.77,5.63-97,31.5-123.6,74.72C-7.76,296.74-8.58,368.85,23.52,426.31c30.08,53.87,84.23,84.76,148.57,84.76h0c25.2,0,44.31-4.24,62-13.74l-.05-.09a32.66,32.66,0,0,0,9.82-6.91L282.45,529l-50.64,50.86,40.08,39.9,50.64-50.86,50.91,50.9,40-40-51-51,37.91-38.08c18.57,12.83,39.94,20.37,72.8,20.37h.05c64.34,0,118.5-30.89,148.58-84.75C653.88,368.86,653.06,296.74,619.69,242.6ZM246.64,413.05l-24.7-24.74c-15.45-15.46-12.79-32.2-3.77-41.21a20,20,0,0,1,14.56-6.16c8.92,0,19.23,5.37,29.68,15.81l20.75,20.75Zm75.71,75.83-35.74-35.81,36.54-35.56,35.21,35.2ZM423.09,388.56,399,413.32l-36.24-36.24,20.15-20.33c16.88-16.87,33.42-20.48,44.25-9.65C436.13,356.11,438.79,372.85,423.09,388.56ZM572.4,398.74c-20.08,36-55.32,55.76-99.21,55.76h0c-13.13,0-22.48-1.43-30.66-4.83l20.84-21.38C502.45,389.18,496,336,467.11,307.11c-27.58-27.59-78.22-36.34-124.31,9.73l-20.08,20.24L302.4,316.76c-46-46-96.64-37.25-124.23-9.65-28.85,28.85-35.33,82.07,3.76,121.17l21.22,21.25c-6.28,2.7-15.31,5-31,5h0c-43.88,0-79.12-19.8-99.21-55.77-21.91-39.24-21.57-90.06.86-126.47,21-34,57.65-51,106.11-48.82l38.93,1.67-10.48-37.53c-7.13-25.55,1.38-60.24,21.18-86.33C245,80.86,273.7,56.56,322.64,56.56s77.67,24.3,93.15,44.69C435.59,127.33,444.1,162,437,187.58L426.5,225.11l38.93-1.67c48.45-2.14,85.14,14.79,106.11,48.82C594,308.68,594.32,359.5,572.4,398.74Z"/><rect class="cls-2" x="715.62" y="520.57" width="1284.38" height="3.98"/><path class="cls-2" d="M864.06,167.82c-4.12-7.17-10.2-18-24.75-28.44-17.36-12.59-36.9-15.63-49-15.63a82.41,82.41,0,0,0-82.72,82.71c0,45.58,36.91,84,82.5,84,25,0,55.14-11.29,72.94-42.77H834.11C823,260.73,807.19,269,790.26,269,758.77,269,731,241.19,731,206.67c0-33.86,26.27-61.43,59.7-61.43,26,0,40.38,17.15,45.15,22.58Z"/><path class="cls-2" d="M1006.3,287.43l-61-160.64h-21l-61,160.64H888l17.81-47.32h57.74l17.8,47.32Zm-50.8-68.82H914l20.62-61.43h.43l20.41,61.43Z"/><polygon class="cls-2" points="1100.94 287.43 1100.94 265.94 1045.15 265.94 1045.15 126.79 1021.71 126.79 1021.71 287.43 1100.94 287.43 1100.94 287.43"/><path class="cls-2" d="M1252.46,167.17a82.3,82.3,0,0,0-72.07-43.42c-46.24,0-82.06,37.55-82.06,83.79,0,44.94,35.39,82.93,82.28,82.93,39.07,0,82.06-29.09,82.92-82.93H1161.94V229h74.89c-15.41,39.51-50.79,40-55.35,40-30.4,0-59.7-26.05-59.7-61.44,0-33.65,26-62.3,59.48-62.3,23.66,0,37.12,14.54,43.85,21.93Z"/><path class="cls-2" d="M1403.33,287.43l-61-160.64h-21l-61,160.64H1285l17.8-47.32h57.75l17.8,47.32Zm-50.79-68.82h-41.47l20.62-61.43h.44l20.41,61.43Z"/><path class="cls-2" d="M1526.85,178.24c0-13.46-4.56-28.22-14.76-38-8.47-8-20.19-13.46-42.77-13.46h-49.71V287.43h23.45V213h.43l53,74.46h29.31l-44.94-59.92c10.42,0,46-6.72,46-49.27Zm-23.44,0c0,31-34.74,31.47-44.29,31.47h-16.06V148.28h24.75c26.48,0,35.6,16.5,35.6,30Z"/><polygon class="cls-2" points="1606.95 287.43 1606.95 229.47 1656.45 126.79 1630.4 126.79 1595.23 202.12 1559.85 126.79 1533.58 126.79 1583.51 229.47 1583.51 287.43 1606.95 287.43 1606.95 287.43"/><polygon class="cls-2" points="739.78 482.01 739.78 412.54 797.52 412.54 797.52 391.05 739.78 391.05 739.78 342.86 797.52 342.86 797.52 321.37 716.33 321.37 716.33 482.01 739.78 482.01 739.78 482.01"/><path class="cls-2" d="M981.18,402.12c0-45.8-35.82-83.79-83.58-83.79-49.06,0-83.58,39.72-83.58,83.36,0,44.06,35.6,83.36,83.58,83.36a83.47,83.47,0,0,0,83.58-82.93Zm-23.45.22c0,25.18-18.67,61.22-60.13,61.22-41.25,0-60.13-35.6-60.13-61.87,0-25.62,18.66-61.87,60.13-61.87,39.94,0,60.13,34.08,60.13,62.52Z"/><path class="cls-2" d="M1106.43,321.37H1083V429.48c0,29.73-21.7,34.08-30.39,34.08s-30.39-4.35-30.39-34.08V321.37H998.75V430.13c0,18.23,6.08,31.47,16.29,41.24a58.39,58.39,0,0,0,75.11,0c10.2-9.77,16.28-23,16.28-41.24V321.37Z"/><polygon class="cls-2" points="1255.56 482.01 1255.56 321.37 1232.12 321.37 1232.12 443.58 1231.68 443.58 1153.53 321.37 1127.92 321.37 1127.92 482.01 1151.36 482.01 1151.36 357.84 1151.8 357.84 1231.25 482.01 1255.56 482.01 1255.56 482.01"/><polygon class="cls-2" points="2000 481.81 2000 321.17 1976.56 321.17 1976.56 443.38 1976.12 443.38 1897.97 321.17 1872.35 321.17 1872.35 481.81 1895.8 481.81 1895.8 357.64 1896.23 357.64 1975.68 481.81 2000 481.81 2000 481.81"/><path class="cls-2" d="M1412.51,402.12a91,91,0,0,0-16.5-51.23c-12.15-16.71-32.12-29.52-65.56-29.52h-52.09V482h51.23c22.57,0,44.28-5,62.73-23.23,11.94-11.72,20.19-34.95,20.19-56.66Zm-23.44,0c0,44.29-31,58.4-59.27,58.4h-28V342.86h28.44c43.85,0,58.83,34.95,58.83,59.26Z"/><path class="cls-2" d="M1553.4,482l-61-160.64h-21.06l-61,160.64h24.75l17.8-47.33h57.74l17.8,47.33Zm-50.8-68.82h-41.46l20.62-61.43h.44l20.4,61.43Z"/><polygon class="cls-2" points="1596.6 482.01 1596.6 342.86 1627.42 342.86 1627.42 321.37 1542.33 321.37 1542.33 342.86 1573.15 342.86 1573.15 482.01 1596.6 482.01 1596.6 482.01"/><polygon class="cls-2" points="1668.88 482.01 1668.88 321.37 1645.44 321.37 1645.44 482.01 1668.88 482.01 1668.88 482.01"/><path class="cls-2" d="M1853.4,402.12c0-45.8-35.82-83.79-83.58-83.79-49.06,0-83.57,39.72-83.57,83.36,0,44.06,35.6,83.36,83.57,83.36a83.47,83.47,0,0,0,83.58-82.93Zm-23.44.22c0,25.18-18.67,61.22-60.14,61.22-41.24,0-60.13-35.6-60.13-61.87,0-25.62,18.67-61.87,60.13-61.87,40,0,60.14,34.08,60.14,62.52Z"/><polygon class="cls-2" points="719.93 625.27 731.8 625.27 731.8 599 751.65 599 751.65 587.91 731.8 587.91 731.8 572.2 752.6 572.2 752.6 561.11 719.93 561.11 719.93 625.27 719.93 625.27"/><path class="cls-2" d="M834.29,593.37a33.56,33.56,0,1,0-33.55,33.2,33.46,33.46,0,0,0,33.55-33.2Zm-11.87-.09c0,11.88-9.45,22.2-21.68,22.2s-21.69-10.32-21.69-22.2c0-12.32,9.63-22.38,21.69-22.38s21.68,10.06,21.68,22.38Z"/><path class="cls-2" d="M887.45,596.31c4.59-4.41,6.15-11.1,6.15-15.35a19.86,19.86,0,0,0-7.54-15.52c-3.64-2.94-8.23-4.33-15.61-4.33H850.77v64.16h11.87V600.73h.18l17,24.54h14.39L876.79,601.6c3.21-.78,6.85-1.65,10.66-5.29Zm-5.72-14.39c0,3.38-1.65,9.89-11.45,9.89h-7.64V572.2h7.64c9.28,0,11.45,6.16,11.45,9.72Z"/><path class="cls-2" d="M988.2,607.42c-2.86,3-7.54,8.06-16.13,8.06-11.36,0-21.33-10.32-21.33-22.38,0-12.83,10.49-22.2,20.9-22.2,7.11,0,12.57,3.21,17.17,8.5h13.53c-6.16-14-19.6-19.59-30.27-19.59a33.4,33.4,0,0,0-33.19,33.12c0,18.13,14.9,33.64,33.46,33.64,12.31,0,24.62-7.36,29.65-19.15Z"/><path class="cls-2" d="M1081.59,593.37a33.55,33.55,0,1,0-33.55,33.2,33.45,33.45,0,0,0,33.55-33.2Zm-11.86-.09c0,11.88-9.46,22.2-21.69,22.2s-21.68-10.32-21.68-22.2c0-12.32,9.62-22.38,21.68-22.38s21.69,10.06,21.69,22.38Z"/><polygon class="cls-2" points="1097.99 625.27 1109.86 625.27 1109.86 577.14 1110.03 577.14 1126.52 625.27 1136.58 625.27 1152.97 577.14 1153.14 577.14 1153.23 577.14 1153.23 625.27 1165.1 625.27 1165.1 561.11 1148.63 561.11 1131.72 609.66 1131.55 609.66 1114.46 561.11 1097.99 561.11 1097.99 625.27 1097.99 625.27"/><polygon class="cls-2" points="1184.1 625.27 1195.96 625.27 1195.96 577.14 1196.14 577.14 1212.62 625.27 1222.68 625.27 1239.08 577.14 1239.25 577.14 1239.33 577.14 1239.33 625.27 1251.2 625.27 1251.2 561.11 1234.74 561.11 1217.82 609.66 1217.65 609.66 1200.57 561.11 1184.1 561.11 1184.1 625.27 1184.1 625.27"/><path class="cls-2" d="M1269.51,561.11v40.76c0,7.89,1.9,12.74,4,15.52a24,24,0,0,0,19.08,9.18,23.3,23.3,0,0,0,19.16-9.53c3-4.25,3.73-10,3.73-15.17V561.11h-11.87v40.76c0,3.21,0,13.61-11.11,13.61s-11.1-10.4-11.1-13.61l.09-40.76Z"/><polygon class="cls-2" points="1334.37 625.27 1346.24 625.27 1346.24 578.63 1346.41 578.63 1373.22 625.27 1386.47 625.27 1386.47 561.11 1374.61 561.11 1374.61 607.76 1374.43 607.76 1347.89 561.11 1334.37 561.11 1334.37 625.27 1334.37 625.27"/><polygon class="cls-2" points="1406.77 625.27 1418.64 625.27 1418.64 561.11 1406.77 561.11 1406.77 625.27 1406.77 625.27"/><polygon class="cls-2" points="1445.28 625.27 1457.14 625.27 1457.14 572.2 1469.11 572.2 1469.11 561.11 1433.39 561.11 1433.39 572.2 1445.28 572.2 1445.28 625.27 1445.28 625.27"/><polygon class="cls-2" points="1498.26 625.27 1510.13 625.27 1510.13 601.6 1531.28 561.11 1518.19 561.11 1504.15 590.59 1490.19 561.11 1477.18 561.11 1498.26 601.6 1498.26 625.27 1498.26 625.27"/><polygon class="cls-2" points="1592.29 625.27 1604.16 625.27 1604.16 599 1624.02 599 1624.02 587.91 1604.16 587.91 1604.16 572.2 1624.97 572.2 1624.97 561.11 1592.29 561.11 1592.29 625.27 1592.29 625.27"/><path class="cls-2" d="M1706.65,593.37a33.55,33.55,0,1,0-33.55,33.2,33.45,33.45,0,0,0,33.55-33.2Zm-11.87-.09c0,11.88-9.45,22.2-21.68,22.2s-21.68-10.32-21.68-22.2c0-12.32,9.62-22.38,21.68-22.38s21.68,10.06,21.68,22.38Z"/><path class="cls-2" d="M1759.81,596.31c4.6-4.41,6.16-11.1,6.16-15.35a19.86,19.86,0,0,0-7.54-15.52c-3.64-2.94-8.24-4.33-15.61-4.33h-19.68v64.16H1735V600.73h.17l17,24.54h14.38l-17.42-23.67c3.21-.78,6.85-1.65,10.66-5.29Zm-5.71-14.39c0,3.38-1.65,9.89-11.46,9.89H1735V572.2h7.63c9.29,0,11.46,6.16,11.46,9.72Z"/><polygon class="cls-2" points="1781.23 625.27 1815.74 625.27 1815.74 614.18 1793.1 614.18 1793.1 599 1814.78 599 1814.78 587.91 1793.1 587.91 1793.1 572.2 1815.74 572.2 1815.74 561.11 1781.23 561.11 1781.23 625.27 1781.23 625.27"/><polygon class="cls-2" points="1854.76 625.27 1864.47 625.27 1889.36 561.11 1876.87 561.11 1859.62 609.92 1859.44 609.92 1842.28 561.11 1829.79 561.11 1854.76 625.27 1854.76 625.27"/><polygon class="cls-2" points="1903.15 625.27 1937.65 625.27 1937.65 614.18 1915.02 614.18 1915.02 599 1936.7 599 1936.7 587.91 1915.02 587.91 1915.02 572.2 1937.65 572.2 1937.65 561.11 1903.15 561.11 1903.15 625.27 1903.15 625.27"/><path class="cls-2" d="M1993.24,596.31c4.59-4.41,6.15-11.1,6.15-15.35a19.88,19.88,0,0,0-7.53-15.52c-3.64-2.94-8.24-4.33-15.61-4.33h-19.68v64.16h11.87V600.73h.17l17,24.54H2000l-17.42-23.67c3.21-.78,6.85-1.65,10.66-5.29Zm-5.72-14.39c0,3.38-1.64,9.89-11.45,9.89h-7.63V572.2h7.63c9.29,0,11.45,6.16,11.45,9.72Z"/><path class="cls-2" d="M1533,625.27h5.11v1.47c0,3.91-3,4.51-5,4.94v5.82c4.24.08,11.43-2.17,11.43-11.54V613.75H1533v11.52Z"/></svg>