<svg id="Layer_1" data-name="Layer 1" xmlns="http://www.w3.org/2000/svg" viewBox="0 0 32 32"><defs><style>.cls-1{fill:#f99c22;}</style></defs><title>04_Favicon</title><path class="cls-1" d="M28.4,13.19a6.66,6.66,0,0,0-5.16-3.12,7.14,7.14,0,0,0-7.24-7,7.14,7.14,0,0,0-7.24,7A6.66,6.66,0,0,0,3.6,13.19a7.67,7.67,0,0,0-.09,7.67,6.89,6.89,0,0,0,6.2,3.54h0a5.24,5.24,0,0,0,2.58-.57h0a1.2,1.2,0,0,0,.41-.29l1.61,1.62-2.11,2.12,1.67,1.67L16,26.81l2.12,2.13,1.67-1.67-2.13-2.13,1.58-1.59a5,5,0,0,0,3,.85h0a6.89,6.89,0,0,0,6.2-3.54A7.67,7.67,0,0,0,28.4,13.19ZM12.83,20.31l-1-1a1.17,1.17,0,0,1-.16-1.72.84.84,0,0,1,.61-.25,1.84,1.84,0,0,1,1.23.66l.87.86ZM16,23.47,14.5,22,16,20.49,17.49,22Zm4.2-4.18-1,1-1.52-1.51.84-.85c.71-.71,1.4-.86,1.85-.41A1.18,1.18,0,0,1,20.19,19.29Zm6.24.42A4.53,4.53,0,0,1,22.29,22h0a3.34,3.34,0,0,1-1.28-.2l.87-.9A3.53,3.53,0,0,0,22,15.88c-1.15-1.15-3.26-1.51-5.19.41l-.84.85-.85-.85c-1.92-1.92-4-1.56-5.18-.41a3.54,3.54,0,0,0,.15,5.06l.89.89A3.21,3.21,0,0,1,9.72,22h0a4.53,4.53,0,0,1-4.14-2.33,5.37,5.37,0,0,1,0-5.28,4.6,4.6,0,0,1,4.43-2l1.62.07-.43-1.57a4.39,4.39,0,0,1,.88-3.6A4.7,4.7,0,0,1,16,5.42a4.7,4.7,0,0,1,3.89,1.87,4.39,4.39,0,0,1,.88,3.6l-.43,1.57L22,12.39a4.61,4.61,0,0,1,4.43,2A5.37,5.37,0,0,1,26.43,19.71Z"/></svg>