<svg id="Layer_1" data-name="Layer 1" xmlns="http://www.w3.org/2000/svg" viewBox="0 0 1000 960.43"><defs><style>.cls-1{fill:#f99c22;}</style></defs><title>03_Icon_Colour</title><path class="cls-1" d="M960.32,376C919,309,852.12,268.87,768.77,260.15c0-53.18-19.16-109.53-54.62-156.24C663.28,36.91,587.22,0,500,0S336.7,36.91,285.83,103.92C250.37,150.63,231.2,207,231.21,260.15,147.88,268.87,80.94,309,39.67,375.94c-51.7,83.9-53,195.66-3.22,284.71C83.07,744.12,167,792,266.68,792h.07c39,0,68.66-6.56,96-21.29l-.07-.13c6.69-2.83,11.37-7.09,15.21-10.71l59.77,59.86-78.47,78.81,62.11,61.84,78.48-78.82,78.88,78.89,62-62-79-79,58.75-59C649.2,780.3,682.3,792,733.23,792h.07c99.72,0,183.64-47.86,230.26-131.33C1013.3,571.61,1012,459.86,960.32,376ZM382.22,640.09l-38.28-38.34c-23.95-24-19.82-49.89-5.85-63.86a31,31,0,0,1,22.57-9.54c13.81,0,29.8,8.31,46,24.49L438.81,585ZM499.54,757.6l-55.4-55.49L500.77,647l54.57,54.54ZM655.66,602.14l-37.41,38.37-56.16-56.16,31.23-31.5c26.16-26.15,51.8-31.74,68.58-15C675.86,551.86,680,577.8,655.66,602.14ZM887,617.91c-31.13,55.73-85.73,86.42-153.75,86.42h0c-20.34,0-34.83-2.22-47.5-7.49L718,663.72c60.61-60.61,50.57-143.09,5.85-187.8C681.13,433.17,602.65,419.6,531.23,491l-31.11,31.37-31.5-31.5c-71.27-71.25-149.76-57.71-192.51-14.95-44.72,44.71-54.76,127.19,5.82,187.78l32.89,32.93c-9.73,4.17-23.73,7.7-48.08,7.7h-.05c-68,0-122.6-30.69-153.73-86.43-34-60.8-33.43-139.56,1.33-196,32.49-52.73,89.34-79,164.43-75.66l60.33,2.6-16.24-58.16c-11.05-39.6,2.15-93.36,32.83-133.78,24-31.6,68.5-69.26,144.34-69.26s120.37,37.66,144.36,69.26c30.69,40.42,43.88,94.18,32.83,133.78l-16.23,58.16,60.32-2.6c75.08-3.31,132,22.93,164.44,75.67C920.47,478.35,921,557.1,887,617.91Z"/></svg>