<?xml version="1.0" encoding="UTF-8" standalone="no"?>
<svg
   xmlns:dc="http://purl.org/dc/elements/1.1/"
   xmlns:cc="http://creativecommons.org/ns#"
   xmlns:rdf="http://www.w3.org/1999/02/22-rdf-syntax-ns#"
   xmlns:svg="http://www.w3.org/2000/svg"
   xmlns="http://www.w3.org/2000/svg"
   xmlns:sodipodi="http://sodipodi.sourceforge.net/DTD/sodipodi-0.dtd"
   xmlns:inkscape="http://www.inkscape.org/namespaces/inkscape"
   width="100%"
   height="100%"
   viewBox="0 0 1080 1080"
   version="1.1"
   xml:space="preserve"
   style="fill-rule:evenodd;clip-rule:evenodd;stroke-linejoin:round;stroke-miterlimit:2;"
   id="svg60"
   sodipodi:docname="ioLogo.svg"
   inkscape:version="1.0.1 (3bc2e813f5, 2020-09-07)"><metadata
   id="metadata66"><rdf:RDF><cc:Work
       rdf:about=""><dc:format>image/svg+xml</dc:format><dc:type
         rdf:resource="http://purl.org/dc/dcmitype/StillImage" /></cc:Work></rdf:RDF></metadata><defs
   id="defs64" /><sodipodi:namedview
   pagecolor="#ffffff"
   bordercolor="#666666"
   borderopacity="1"
   objecttolerance="10"
   gridtolerance="10"
   guidetolerance="10"
   inkscape:pageopacity="0"
   inkscape:pageshadow="2"
   inkscape:window-width="2400"
   inkscape:window-height="1271"
   id="namedview62"
   showgrid="false"
   inkscape:zoom="0.27171233"
   inkscape:cx="-140.24321"
   inkscape:cy="1307.4482"
   inkscape:window-x="-9"
   inkscape:window-y="-9"
   inkscape:window-maximized="1"
   inkscape:current-layer="svg60" />
    
    <g
   transform="matrix(1.08089,0,0,1.08089,24.7873,-110.786)"
   id="g58">
        <g
   transform="matrix(0.925164,0,0,0.925164,-22.9323,102.495)"
   id="g6">
            <path
   d="M589.195,187.233C614.883,179.691 642.021,175.65 670.078,175.65C831.149,175.65 961.919,308.84 961.919,472.894C961.919,636.948 834.132,770.139 670.078,770.139C574.044,770.139 490.438,724.498 437.617,653.742L589.195,187.233ZM563.587,196.091L422.262,631.046C394.268,585.231 378.238,530.998 378.238,472.894C378.238,347.107 455.117,239.464 563.587,196.091Z"
   style="fill:rgb(22,212,255);"
   id="path4" />
        </g>
        <g
   transform="matrix(0.925164,0,0,0.925164,-22.9323,102.495)"
   id="g10">
            <path
   d="M120.986,181.054L315.547,181.054L315.547,266.127L155.295,759.33L120.986,759.33L120.986,181.054ZM315.547,759.33L178.026,759.33L315.547,336.084L315.547,759.33Z"
   style="fill:rgb(22,212,255);"
   id="path8" />
        </g>
        <g
   transform="matrix(0.891615,0.289703,-0.279982,0.861696,253.497,51.9471)"
   id="g14">
            <path
   d="M326,143.449L134,208L135.28,828.438L326,764.318L326,143.449Z"
   style="fill:rgb(255,117,117);"
   id="path12" />
        </g>
        <path
   d="M499.628,283.455L368.384,687.383C342.08,644.773 327,594.208 327,540C327,423.182 398.669,323.279 499.628,283.455Z"
   style="fill:rgb(255,201,76);"
   id="path16" />
        <path
   d="M269,410.763L269,805L142.167,805L269,410.763Z"
   style="fill:rgb(255,201,76);"
   id="path18" />
        <g
   transform="matrix(2.64447,0,0,2.64447,-1967.53,-964.583)"
   id="g56">
            <g
   transform="matrix(0.99,0,0,1,7.73,0)"
   id="g24">
                <g
   transform="matrix(49.2651,0,0,49.2651,773,718.815)"
   id="g22">
                    <rect
   x="0.075"
   y="-0.695"
   width="0.114"
   height="0.695"
   style="fill:rgb(255,117,117);fill-rule:nonzero;"
   id="rect20" />
                </g>
            </g>
            <g
   transform="matrix(0.99,0,0,1,7.90753,0)"
   id="g30">
                <g
   transform="matrix(49.2651,0,0,49.2651,790.753,718.815)"
   id="g28">
                    <path
   d="M0.118,0L0.008,0L0.278,-0.718L0.387,-0.718L0.118,0Z"
   style="fill:rgb(255,117,117);fill-rule:nonzero;"
   id="path26" />
                </g>
            </g>
            <g
   transform="matrix(0.99,0,0,1,8.14658,0)"
   id="g36">
                <g
   transform="matrix(49.2651,0,0,49.2651,814.658,718.815)"
   id="g34">
                    <path
   d="M0.392,0.007C0.327,0.007 0.268,-0.008 0.214,-0.039C0.159,-0.069 0.116,-0.111 0.085,-0.166C0.053,-0.22 0.037,-0.281 0.037,-0.349C0.037,-0.417 0.053,-0.478 0.085,-0.532C0.116,-0.586 0.159,-0.628 0.214,-0.659C0.268,-0.689 0.327,-0.704 0.392,-0.704C0.457,-0.704 0.517,-0.689 0.572,-0.659C0.626,-0.628 0.669,-0.586 0.7,-0.532C0.731,-0.478 0.747,-0.417 0.747,-0.349C0.747,-0.281 0.731,-0.22 0.7,-0.166C0.669,-0.111 0.626,-0.069 0.572,-0.039C0.517,-0.008 0.457,0.007 0.392,0.007ZM0.392,-0.092C0.438,-0.092 0.479,-0.102 0.515,-0.124C0.551,-0.145 0.579,-0.174 0.6,-0.214C0.62,-0.253 0.63,-0.298 0.63,-0.349C0.63,-0.4 0.62,-0.445 0.6,-0.484C0.579,-0.523 0.551,-0.552 0.515,-0.573C0.479,-0.594 0.438,-0.604 0.392,-0.604C0.346,-0.604 0.305,-0.594 0.269,-0.573C0.233,-0.552 0.205,-0.523 0.185,-0.484C0.164,-0.445 0.154,-0.4 0.154,-0.349C0.154,-0.298 0.164,-0.253 0.185,-0.214C0.205,-0.174 0.233,-0.145 0.269,-0.124C0.305,-0.102 0.346,-0.092 0.392,-0.092Z"
   style="fill:rgb(255,117,117);fill-rule:nonzero;"
   id="path32" />
                </g>
            </g>
            <g
   transform="matrix(0.99,0,0,1,8.92889,0)"
   id="g54">
                <g
   transform="matrix(49.2651,0,0,49.2651,892.889,718.815)"
   id="g40">
                    <path
   d="M0.189,-0.092L0.424,-0.092L0.424,0L0.075,0L0.075,-0.695L0.189,-0.695L0.189,-0.092Z"
   style="fill:rgb(255,117,117);fill-rule:nonzero;"
   id="path38" />
                </g>
                <g
   transform="matrix(49.2651,0,0,49.2651,932.006,718.815)"
   id="g44">
                    <path
   d="M0.494,-0.142L0.203,-0.142L0.153,0L0.034,0L0.283,-0.696L0.415,-0.696L0.664,0L0.544,0L0.494,-0.142ZM0.462,-0.235L0.349,-0.558L0.235,-0.235L0.462,-0.235Z"
   style="fill:rgb(255,117,117);fill-rule:nonzero;"
   id="path42" />
                </g>
                <g
   transform="matrix(49.2651,0,0,49.2651,983.586,718.815)"
   id="g48">
                    <path
   d="M0.447,-0.357C0.484,-0.35 0.516,-0.331 0.542,-0.298C0.568,-0.265 0.581,-0.228 0.581,-0.187C0.581,-0.152 0.572,-0.12 0.554,-0.092C0.535,-0.063 0.509,-0.041 0.474,-0.025C0.439,-0.008 0.399,0 0.353,0L0.075,0L0.075,-0.695L0.34,-0.695C0.387,-0.695 0.428,-0.687 0.462,-0.671C0.496,-0.655 0.522,-0.633 0.539,-0.607C0.556,-0.58 0.565,-0.549 0.565,-0.516C0.565,-0.476 0.554,-0.443 0.533,-0.416C0.512,-0.389 0.483,-0.37 0.447,-0.357ZM0.189,-0.403L0.33,-0.403C0.367,-0.403 0.397,-0.411 0.418,-0.429C0.439,-0.446 0.449,-0.47 0.449,-0.502C0.449,-0.533 0.439,-0.558 0.418,-0.576C0.397,-0.593 0.367,-0.602 0.33,-0.602L0.189,-0.602L0.189,-0.403ZM0.343,-0.093C0.382,-0.093 0.412,-0.102 0.434,-0.121C0.456,-0.14 0.467,-0.166 0.467,-0.199C0.467,-0.233 0.455,-0.26 0.432,-0.28C0.409,-0.3 0.378,-0.31 0.339,-0.31L0.189,-0.31L0.189,-0.093L0.343,-0.093Z"
   style="fill:rgb(255,117,117);fill-rule:nonzero;"
   id="path46" />
                </g>
                <g
   transform="matrix(49.2651,0,0,49.2651,1031.87,718.815)"
   id="g52">
                    <path
   d="M0.304,0.007C0.257,0.007 0.215,-0.001 0.178,-0.018C0.141,-0.034 0.111,-0.057 0.09,-0.087C0.069,-0.117 0.058,-0.152 0.058,-0.192L0.18,-0.192C0.183,-0.162 0.195,-0.137 0.216,-0.118C0.236,-0.099 0.266,-0.089 0.304,-0.089C0.343,-0.089 0.374,-0.099 0.396,-0.117C0.418,-0.137 0.429,-0.161 0.429,-0.191C0.429,-0.214 0.422,-0.233 0.408,-0.248C0.395,-0.263 0.378,-0.274 0.358,-0.282C0.337,-0.29 0.309,-0.299 0.273,-0.308C0.228,-0.32 0.191,-0.332 0.163,-0.344C0.134,-0.357 0.11,-0.376 0.09,-0.402C0.07,-0.428 0.06,-0.463 0.06,-0.506C0.06,-0.546 0.07,-0.581 0.09,-0.611C0.11,-0.641 0.138,-0.664 0.174,-0.68C0.21,-0.696 0.252,-0.704 0.299,-0.704C0.366,-0.704 0.422,-0.687 0.465,-0.654C0.507,-0.62 0.531,-0.574 0.536,-0.515L0.41,-0.515C0.408,-0.54 0.396,-0.562 0.374,-0.58C0.352,-0.598 0.323,-0.607 0.287,-0.607C0.254,-0.607 0.228,-0.599 0.207,-0.582C0.186,-0.565 0.176,-0.541 0.176,-0.51C0.176,-0.489 0.183,-0.471 0.196,-0.458C0.209,-0.444 0.225,-0.433 0.245,-0.425C0.265,-0.417 0.292,-0.408 0.327,-0.399C0.373,-0.386 0.41,-0.374 0.44,-0.361C0.469,-0.348 0.493,-0.329 0.514,-0.303C0.534,-0.276 0.544,-0.241 0.544,-0.197C0.544,-0.162 0.535,-0.128 0.516,-0.097C0.497,-0.066 0.469,-0.041 0.433,-0.021C0.396,-0.003 0.353,0.007 0.304,0.007Z"
   style="fill:rgb(255,117,117);fill-rule:nonzero;"
   id="path50" />
                </g>
            </g>
        </g>
    </g>
</svg>
