<?xml version="1.0" encoding="UTF-8" standalone="no"?>
<svg
   xmlns:dc="http://purl.org/dc/elements/1.1/"
   xmlns:cc="http://creativecommons.org/ns#"
   xmlns:rdf="http://www.w3.org/1999/02/22-rdf-syntax-ns#"
   xmlns:svg="http://www.w3.org/2000/svg"
   xmlns="http://www.w3.org/2000/svg"
   xmlns:sodipodi="http://sodipodi.sourceforge.net/DTD/sodipodi-0.dtd"
   xmlns:inkscape="http://www.inkscape.org/namespaces/inkscape"
   width="100%"
   height="100%"
   viewBox="0 0 1080 240"
   version="1.1"
   xml:space="preserve"
   style="fill-rule:evenodd;clip-rule:evenodd;stroke-linejoin:round;stroke-miterlimit:2;"
   id="svg40"
   sodipodi:docname="ioLogo-nav.svg"
   inkscape:version="1.0.1 (3bc2e813f5, 2020-09-07)"><metadata
   id="metadata46"><rdf:RDF><cc:Work
       rdf:about=""><dc:format>image/svg+xml</dc:format><dc:type
         rdf:resource="http://purl.org/dc/dcmitype/StillImage" /><dc:title></dc:title></cc:Work></rdf:RDF></metadata><defs
   id="defs44" /><sodipodi:namedview
   pagecolor="#ffffff"
   bordercolor="#666666"
   borderopacity="1"
   objecttolerance="10"
   gridtolerance="10"
   guidetolerance="10"
   inkscape:pageopacity="0"
   inkscape:pageshadow="2"
   inkscape:window-width="1920"
   inkscape:window-height="1001"
   id="namedview42"
   showgrid="false"
   inkscape:zoom="0.80728024"
   inkscape:cx="484.91633"
   inkscape:cy="115.36348"
   inkscape:window-x="-9"
   inkscape:window-y="-9"
   inkscape:window-maximized="1"
   inkscape:current-layer="svg40" />
    
    
<g
   transform="matrix(0.173536,0,0,0.173536,15.409992,38.1663)"
   id="g18">
        <path
   d="m 589.195,187.233 c 25.688,-7.542 52.826,-11.583 80.883,-11.583 161.071,0 291.841,133.19 291.841,297.244 0,164.054 -127.787,297.245 -291.841,297.245 -96.034,0 -179.64,-45.641 -232.461,-116.397 z m -25.608,8.858 -141.325,434.955 c -27.994,-45.815 -44.024,-100.048 -44.024,-158.152 0,-125.787 76.879,-233.43 185.349,-276.803 z"
   style="fill:#16d4ff"
   id="path2" />
        <path
   d="m 120.986,181.054 h 194.561 v 85.073 L 155.295,759.33 H 120.986 Z M 315.547,759.33 H 178.026 L 315.547,336.084 Z"
   style="fill:#16d4ff"
   id="path4" />
        <g
   transform="matrix(0.963738,0.313137,-0.302629,0.931398,298.789,-54.6372)"
   id="g8">
            <path
   d="M 326,143.449 134,208 135.28,828.438 326,764.318 Z"
   style="fill:#ff7575"
   id="path6" />
        </g>
        <g
   transform="matrix(1.08089,0,0,1.08089,24.7873,-110.786)"
   id="g12">
            <path
   d="M 499.628,283.455 368.384,687.383 C 342.08,644.773 327,594.208 327,540 327,423.182 398.669,323.279 499.628,283.455 Z"
   style="fill:#ffc94c"
   id="path10" />
        </g>
        <g
   transform="matrix(1.08089,0,0,1.08089,24.7873,-110.786)"
   id="g16">
            <path
   d="M 269,410.763 V 805 H 142.167 Z"
   style="fill:#ffc94c"
   id="path14" />
        </g>
    </g><g
   transform="matrix(2.8583812,0,0,2.8583812,-1958.6092,-1884.7099)"
   id="g56"
   style="clip-rule:evenodd;fill-rule:evenodd;stroke-linejoin:round;stroke-miterlimit:2"><g
     transform="matrix(0.99,0,0,1,7.73,0)"
     id="g24"><g
       transform="matrix(49.2651,0,0,49.2651,773,718.815)"
       id="g22"><rect
         x="0.075000003"
         y="-0.69499999"
         width="0.114"
         height="0.69499999"
         style="fill:#ff7575;fill-rule:nonzero"
         id="rect20" /></g></g><g
     transform="matrix(0.99,0,0,1,7.90753,0)"
     id="g30"><g
       transform="matrix(49.2651,0,0,49.2651,790.753,718.815)"
       id="g28"><path
         d="m 0.118,0 h -0.11 l 0.27,-0.718 h 0.109 z"
         style="fill:#ff7575;fill-rule:nonzero"
         id="path26" /></g></g><g
     transform="matrix(0.99,0,0,1,8.14658,0)"
     id="g36"><g
       transform="matrix(49.2651,0,0,49.2651,814.658,718.815)"
       id="g34"><path
         d="M 0.392,0.007 C 0.327,0.007 0.268,-0.008 0.214,-0.039 0.159,-0.069 0.116,-0.111 0.085,-0.166 0.053,-0.22 0.037,-0.281 0.037,-0.349 c 0,-0.068 0.016,-0.129 0.048,-0.183 0.031,-0.054 0.074,-0.096 0.129,-0.127 0.054,-0.03 0.113,-0.045 0.178,-0.045 0.065,0 0.125,0.015 0.18,0.045 0.054,0.031 0.097,0.073 0.128,0.127 0.031,0.054 0.047,0.115 0.047,0.183 0,0.068 -0.016,0.129 -0.047,0.183 -0.031,0.055 -0.074,0.097 -0.128,0.127 -0.055,0.031 -0.115,0.046 -0.18,0.046 z m 0,-0.099 c 0.046,0 0.087,-0.01 0.123,-0.032 C 0.551,-0.145 0.579,-0.174 0.6,-0.214 0.62,-0.253 0.63,-0.298 0.63,-0.349 0.63,-0.4 0.62,-0.445 0.6,-0.484 0.579,-0.523 0.551,-0.552 0.515,-0.573 0.479,-0.594 0.438,-0.604 0.392,-0.604 c -0.046,0 -0.087,0.01 -0.123,0.031 -0.036,0.021 -0.064,0.05 -0.084,0.089 -0.021,0.039 -0.031,0.084 -0.031,0.135 0,0.051 0.01,0.096 0.031,0.135 0.02,0.04 0.048,0.069 0.084,0.09 0.036,0.022 0.077,0.032 0.123,0.032 z"
         style="fill:#ff7575;fill-rule:nonzero"
         id="path32" /></g></g><g
     transform="matrix(0.99,0,0,1,8.92889,0)"
     id="g54"><g
       transform="matrix(49.2651,0,0,49.2651,892.889,718.815)"
       id="g40"><path
         d="M 0.189,-0.092 H 0.424 V 0 H 0.075 v -0.695 h 0.114 z"
         style="fill:#ff7575;fill-rule:nonzero"
         id="path38" /></g><g
       transform="matrix(49.2651,0,0,49.2651,932.006,718.815)"
       id="g44"><path
         d="M 0.494,-0.142 H 0.203 L 0.153,0 H 0.034 L 0.283,-0.696 H 0.415 L 0.664,0 H 0.544 Z M 0.462,-0.235 0.349,-0.558 0.235,-0.235 Z"
         style="fill:#ff7575;fill-rule:nonzero"
         id="path42" /></g><g
       transform="matrix(49.2651,0,0,49.2651,983.586,718.815)"
       id="g48"><path
         d="m 0.447,-0.357 c 0.037,0.007 0.069,0.026 0.095,0.059 0.026,0.033 0.039,0.07 0.039,0.111 0,0.035 -0.009,0.067 -0.027,0.095 -0.019,0.029 -0.045,0.051 -0.08,0.067 C 0.439,-0.008 0.399,0 0.353,0 H 0.075 V -0.695 H 0.34 c 0.047,0 0.088,0.008 0.122,0.024 0.034,0.016 0.06,0.038 0.077,0.064 0.017,0.027 0.026,0.058 0.026,0.091 0,0.04 -0.011,0.073 -0.032,0.1 -0.021,0.027 -0.05,0.046 -0.086,0.059 z M 0.189,-0.403 H 0.33 c 0.037,0 0.067,-0.008 0.088,-0.026 0.021,-0.017 0.031,-0.041 0.031,-0.073 0,-0.031 -0.01,-0.056 -0.031,-0.074 C 0.397,-0.593 0.367,-0.602 0.33,-0.602 H 0.189 Z m 0.154,0.31 c 0.039,0 0.069,-0.009 0.091,-0.028 C 0.456,-0.14 0.467,-0.166 0.467,-0.199 0.467,-0.233 0.455,-0.26 0.432,-0.28 0.409,-0.3 0.378,-0.31 0.339,-0.31 h -0.15 v 0.217 z"
         style="fill:#ff7575;fill-rule:nonzero"
         id="path46" /></g><g
       transform="matrix(49.2651,0,0,49.2651,1031.87,718.815)"
       id="g52"><path
         d="M 0.304,0.007 C 0.257,0.007 0.215,-0.001 0.178,-0.018 0.141,-0.034 0.111,-0.057 0.09,-0.087 0.069,-0.117 0.058,-0.152 0.058,-0.192 H 0.18 c 0.003,0.03 0.015,0.055 0.036,0.074 0.02,0.019 0.05,0.029 0.088,0.029 0.039,0 0.07,-0.01 0.092,-0.028 0.022,-0.02 0.033,-0.044 0.033,-0.074 0,-0.023 -0.007,-0.042 -0.021,-0.057 C 0.395,-0.263 0.378,-0.274 0.358,-0.282 0.337,-0.29 0.309,-0.299 0.273,-0.308 0.228,-0.32 0.191,-0.332 0.163,-0.344 0.134,-0.357 0.11,-0.376 0.09,-0.402 0.07,-0.428 0.06,-0.463 0.06,-0.506 c 0,-0.04 0.01,-0.075 0.03,-0.105 0.02,-0.03 0.048,-0.053 0.084,-0.069 0.036,-0.016 0.078,-0.024 0.125,-0.024 0.067,0 0.123,0.017 0.166,0.05 0.042,0.034 0.066,0.08 0.071,0.139 H 0.41 C 0.408,-0.54 0.396,-0.562 0.374,-0.58 0.352,-0.598 0.323,-0.607 0.287,-0.607 c -0.033,0 -0.059,0.008 -0.08,0.025 -0.021,0.017 -0.031,0.041 -0.031,0.072 0,0.021 0.007,0.039 0.02,0.052 0.013,0.014 0.029,0.025 0.049,0.033 0.02,0.008 0.047,0.017 0.082,0.026 0.046,0.013 0.083,0.025 0.113,0.038 0.029,0.013 0.053,0.032 0.074,0.058 0.02,0.027 0.03,0.062 0.03,0.106 0,0.035 -0.009,0.069 -0.028,0.1 -0.019,0.031 -0.047,0.056 -0.083,0.076 -0.037,0.018 -0.08,0.028 -0.129,0.028 z"
         style="fill:#ff7575;fill-rule:nonzero"
         id="path50" /></g></g></g></svg>
